<svg width="95" height="90" viewBox="0 0 95 90" fill="none" xmlns="http://www.w3.org/2000/svg">
<g clip-path="url(#clip0_159_182)">
<path d="M8.66666 16.6667H19.6051C20.3551 16.6667 20.73 16.6667 21.0013 16.8785C21.2726 17.0902 21.3635 17.454 21.5454 18.1816L24.5759 30.3035C24.9396 31.7586 25.1215 32.4861 25.6641 32.9097C26.2066 33.3333 26.9565 33.3333 28.4564 33.3333H33.6667" stroke="#222222" stroke-width="4" stroke-linecap="round"/>
<path d="M67 70.8333H19.7749C18.5086 70.8333 17.8755 70.8333 17.5762 70.4181C17.2769 70.0028 17.4771 69.4021 17.8775 68.2009L20.255 61.0684C20.695 59.7484 20.915 59.0884 21.4388 58.7109C21.9625 58.3333 22.6583 58.3333 24.0497 58.3333H50.3333" stroke="#222222" stroke-width="4" stroke-linecap="round" stroke-linejoin="round"/>
<path d="M61.5973 58.3333H27.0276C26.0499 58.3333 25.2155 57.6265 25.0548 56.6621L21.4578 35.0799C21.3054 34.1656 22.0104 33.3333 22.9374 33.3333H73.7153C74.4587 33.3333 74.9422 34.1157 74.6097 34.7806L63.3861 57.2278C63.0473 57.9053 62.3548 58.3333 61.5973 58.3333Z" stroke="#222222" stroke-width="4" stroke-linecap="round"/>
<circle cx="60" cy="83" r="5" fill="#222222"/>
<circle cx="25" cy="83" r="5" fill="#222222"/>
<line x1="23" y1="45.83" x2="70" y2="45.83" stroke="#222222" stroke-width="4"/>
<path d="M36 33L39 58.5" stroke="#222222" stroke-width="4"/>
<path d="M57 33L54 58" stroke="#222222" stroke-width="4"/>
<mask id="path-9-inside-1_159_182" fill="white">
<path d="M90.963 36.5358C91.5606 36.7059 92.1855 36.3597 92.3286 35.7551C93.7624 29.6948 92.8847 23.3013 89.8417 17.8369C86.6158 12.0441 81.2209 7.77008 74.8438 5.95499C68.4667 4.1399 61.6297 4.93246 55.8369 8.15832C50.3725 11.2013 46.2595 16.1744 44.2872 22.0813C44.0904 22.6707 44.4394 23.2941 45.037 23.4642C45.6346 23.6343 46.2542 23.2866 46.4536 22.6981C48.2608 17.3649 51.9886 12.8767 56.9316 10.1241C62.203 7.18854 68.4247 6.46731 74.2279 8.11904C80.031 9.77077 84.9404 13.6602 87.8759 18.9316C90.6286 23.8746 91.4342 29.6531 90.1621 35.1386C90.0217 35.7439 90.3654 36.3657 90.963 36.5358Z"/>
</mask>
<path d="M90.963 36.5358C91.5606 36.7059 92.1855 36.3597 92.3286 35.7551C93.7624 29.6948 92.8847 23.3013 89.8417 17.8369C86.6158 12.0441 81.2209 7.77008 74.8438 5.95499C68.4667 4.1399 61.6297 4.93246 55.8369 8.15832C50.3725 11.2013 46.2595 16.1744 44.2872 22.0813C44.0904 22.6707 44.4394 23.2941 45.037 23.4642C45.6346 23.6343 46.2542 23.2866 46.4536 22.6981C48.2608 17.3649 51.9886 12.8767 56.9316 10.1241C62.203 7.18854 68.4247 6.46731 74.2279 8.11904C80.031 9.77077 84.9404 13.6602 87.8759 18.9316C90.6286 23.8746 91.4342 29.6531 90.1621 35.1386C90.0217 35.7439 90.3654 36.3657 90.963 36.5358Z" stroke="#222222" stroke-width="4" mask="url(#path-9-inside-1_159_182)"/>
<path d="M42.9806 18.0668C42.9138 17.6878 43.2823 17.3785 43.644 17.5101L50.1544 19.8797C50.5161 20.0114 50.5996 20.4852 50.3048 20.7326L44.9975 25.186C44.7026 25.4334 44.2505 25.2688 44.1837 24.8898L42.9806 18.0668Z" fill="#222222"/>
</g>
<defs>
<clipPath id="clip0_159_182">
<rect width="95" height="90" fill="white"/>
</clipPath>
</defs>
</svg>
