<svg width="32" height="32" viewBox="0 0 32 32" fill="none" xmlns="http://www.w3.org/2000/svg">
<path d="M1 2.5H4.56345C5.3134 2.5 5.68837 2.5 5.95964 2.71179C6.2309 2.92359 6.32184 3.28737 6.50373 4.01493L7.4092 7.63681C7.77298 9.09193 7.95487 9.81949 8.4974 10.2431C9.03992 10.6667 9.78987 10.6667 11.2898 10.6667H12.25" stroke="#222222" stroke-width="2" stroke-linecap="round"/>
<path d="M23.9732 22.5H9.62808C8.64568 22.5 7.80873 21.7865 7.65328 20.8165L6.27842 12.2374C6.13235 11.3259 6.8364 10.5 7.75952 10.5H29.4097C30.1463 10.5 30.6301 11.2694 30.3109 11.9333L25.7757 21.3666C25.4426 22.0594 24.7419 22.5 23.9732 22.5Z" fill="#222222" stroke="#222222" stroke-width="2" stroke-linecap="round"/>
<circle cx="24.7163" cy="27.7364" r="2.60638" fill="#222222"/>
<circle cx="10.078" cy="27.7364" r="2.60638" fill="#222222"/>
</svg>
