<svg width="30" height="30" viewBox="0 0 49 49" fill="none" xmlns="http://www.w3.org/2000/svg">
<path d="M8.16666 8.16667H12.7301C13.4801 8.16667 13.855 8.16667 14.1263 8.37846C14.3976 8.59026 14.4885 8.95404 14.6704 9.6816L15.5759 13.3035C15.9396 14.7586 16.1215 15.4862 16.6641 15.9097C17.2066 16.3333 17.9565 16.3333 19.4564 16.3333H20.4167" stroke="#222222" stroke-width="2" stroke-linecap="round"/>
<path d="M33.4723 28.5833H18.0276C17.0499 28.5833 16.2155 27.8765 16.0548 26.9121L14.5828 18.0799C14.4304 17.1656 15.1354 16.3333 16.0623 16.3333H39.2153C39.9587 16.3333 40.4422 17.1156 40.1097 17.7805L35.2611 27.4778C34.9223 28.1553 34.2298 28.5833 33.4723 28.5833Z" fill="#222222" stroke="#222222" stroke-width="2" stroke-linecap="round"/>
<circle cx="33.883" cy="34.4043" r="2.60638" fill="#222222"/>
<circle cx="18.2447" cy="34.4043" r="2.60638" fill="#222222"/>
</svg>
