<svg width="28" height="28" viewBox="0 0 28 28" fill="none" xmlns="http://www.w3.org/2000/svg">
<g clip-path="url(#clip0_31_101)">
<mask id="mask0_31_101" style="mask-type:luminance" maskUnits="userSpaceOnUse" x="0" y="0" width="28" height="28">
<path d="M0.580368 0.580421H27.4183V27.4184H0.580368V0.580421Z" fill="white"/>
</mask>
<g mask="url(#mask0_31_101)">
<path d="M4.60602 0.580421H23.3926C23.4585 0.580421 23.5243 0.582026 23.5902 0.585234C23.6559 0.588442 23.7216 0.593328 23.7872 0.599744C23.8528 0.606234 23.9181 0.614328 23.9833 0.623953C24.0485 0.633651 24.1134 0.64488 24.178 0.657713C24.2426 0.670619 24.3069 0.685057 24.3708 0.701026C24.4347 0.717067 24.4982 0.73464 24.5612 0.753744C24.6243 0.772849 24.6868 0.793484 24.7488 0.815723C24.8109 0.83789 24.8723 0.861588 24.9332 0.886817C24.994 0.912046 25.0543 0.938734 25.1138 0.96688C25.1734 0.995098 25.2323 1.0247 25.2903 1.05577C25.3484 1.08683 25.4057 1.11928 25.4622 1.15311C25.5187 1.18702 25.5744 1.22223 25.6292 1.25884C25.684 1.29544 25.7378 1.33336 25.7907 1.37259C25.8437 1.41189 25.8956 1.45236 25.9465 1.49421C25.9974 1.53599 26.0473 1.57902 26.0961 1.62328C26.145 1.66746 26.1926 1.71289 26.2392 1.75948C26.2858 1.80608 26.3313 1.85377 26.3754 1.90262C26.4197 1.9514 26.4627 2.00128 26.5045 2.05224C26.5464 2.10314 26.5868 2.15506 26.6261 2.20799C26.6654 2.26093 26.7033 2.31474 26.7399 2.3695C26.7765 2.42434 26.8117 2.47997 26.8456 2.53648C26.8794 2.59299 26.9119 2.65031 26.943 2.70842C26.974 2.76646 27.0036 2.82531 27.0318 2.88488C27.06 2.94445 27.0867 3.00468 27.1119 3.06549C27.1371 3.12638 27.1608 3.18785 27.183 3.2499C27.2052 3.31188 27.2259 3.37444 27.245 3.43751C27.2641 3.50051 27.2816 3.56403 27.2977 3.6279C27.3137 3.69185 27.3281 3.75609 27.341 3.82069C27.3538 3.8853 27.3651 3.95019 27.3748 4.01538C27.3844 4.08057 27.3925 4.1459 27.399 4.21153C27.4054 4.27708 27.4103 4.34278 27.4135 4.40855C27.4167 4.47439 27.4183 4.54023 27.4183 4.60608V23.3927C27.4183 23.4585 27.4167 23.5244 27.4135 23.5902C27.4103 23.656 27.4054 23.7217 27.399 23.7872C27.3925 23.8529 27.3844 23.9182 27.3748 23.9834C27.3651 24.0486 27.3538 24.1135 27.341 24.1781C27.3281 24.2427 27.3137 24.3069 27.2977 24.3709C27.2816 24.4347 27.2641 24.4983 27.245 24.5613C27.2259 24.6243 27.2052 24.6869 27.183 24.7489C27.1608 24.8109 27.1371 24.8724 27.1119 24.9333C27.0867 24.9941 27.06 25.0543 27.0318 25.1139C27.0036 25.1735 26.974 25.2323 26.943 25.2904C26.9119 25.3485 26.8794 25.4058 26.8456 25.4623C26.8117 25.5188 26.7765 25.5744 26.7399 25.6293C26.7033 25.684 26.6654 25.7378 26.6261 25.7908C26.5868 25.8437 26.5464 25.8956 26.5045 25.9465C26.4627 25.9975 26.4197 26.0474 26.3754 26.0961C26.3313 26.145 26.2858 26.1927 26.2392 26.2393C26.1926 26.2859 26.145 26.3313 26.0961 26.3755C26.0473 26.4198 25.9974 26.4628 25.9465 26.5046C25.8956 26.5464 25.8437 26.5869 25.7907 26.6262C25.7378 26.6654 25.684 26.7033 25.6292 26.7399C25.5744 26.7765 25.5187 26.8118 25.4622 26.8457C25.4057 26.8795 25.3484 26.9119 25.2903 26.943C25.2323 26.9741 25.1734 27.0037 25.1138 27.0319C25.0543 27.06 24.994 27.0867 24.9332 27.1119C24.8723 27.1372 24.8109 27.1609 24.7488 27.183C24.6868 27.2053 24.6243 27.2259 24.5612 27.245C24.4982 27.2641 24.4347 27.2817 24.3708 27.2977C24.3069 27.3137 24.2426 27.3281 24.178 27.3411C24.1134 27.3539 24.0485 27.3651 23.9833 27.3748C23.9181 27.3844 23.8528 27.3925 23.7872 27.399C23.7216 27.4054 23.6559 27.4103 23.5902 27.4135C23.5243 27.4167 23.4585 27.4184 23.3926 27.4184H4.60602C4.54018 27.4184 4.47434 27.4167 4.40849 27.4135C4.34272 27.4103 4.27702 27.4054 4.21147 27.399C4.14585 27.3925 4.08051 27.3844 4.01533 27.3748C3.95014 27.3651 3.88524 27.3539 3.82064 27.3411C3.75603 27.3281 3.6918 27.3137 3.62785 27.2977C3.56397 27.2817 3.50046 27.2641 3.43746 27.245C3.37439 27.2259 3.31183 27.2053 3.24985 27.183C3.1878 27.1609 3.12633 27.1372 3.06544 27.1119C3.00463 27.0867 2.9444 27.06 2.88483 27.0319C2.82525 27.0037 2.76641 26.9741 2.7083 26.943C2.65025 26.9119 2.59294 26.8795 2.53643 26.8457C2.47992 26.8118 2.42428 26.7765 2.36945 26.7399C2.31469 26.7033 2.26088 26.6654 2.20794 26.6262C2.155 26.5869 2.10309 26.5464 2.05212 26.5046C2.00122 26.4628 1.95135 26.4198 1.90257 26.3755C1.85371 26.3313 1.80602 26.2859 1.75943 26.2393C1.71284 26.1927 1.66741 26.145 1.62315 26.0961C1.57896 26.0474 1.53594 25.9975 1.49416 25.9465C1.45231 25.8956 1.41184 25.8437 1.37253 25.7908C1.33331 25.7378 1.29539 25.684 1.25878 25.6293C1.22218 25.5744 1.18696 25.5188 1.15306 25.4623C1.11922 25.4058 1.08677 25.3485 1.05571 25.2904C1.02465 25.2323 0.995045 25.1735 0.966826 25.1139C0.938681 25.0543 0.911993 24.9941 0.886764 24.9333C0.861535 24.8724 0.837837 24.8109 0.81567 24.7489C0.793431 24.6869 0.772795 24.6243 0.753691 24.5613C0.734587 24.4983 0.717014 24.4347 0.700972 24.3709C0.685003 24.3069 0.670566 24.2427 0.65766 24.1781C0.644826 24.1135 0.633597 24.0486 0.623899 23.9834C0.614201 23.9182 0.606181 23.8529 0.599691 23.7872C0.593274 23.7217 0.588389 23.656 0.585181 23.5902C0.581972 23.5244 0.580368 23.4585 0.580368 23.3927V4.60608C0.580368 4.54023 0.581972 4.47439 0.585181 4.40855C0.588389 4.34278 0.593274 4.27708 0.599691 4.21153C0.606181 4.1459 0.614201 4.08057 0.623899 4.01538C0.633597 3.95019 0.644826 3.8853 0.65766 3.82069C0.670566 3.75609 0.685003 3.69185 0.700972 3.6279C0.717014 3.56403 0.734587 3.50051 0.753691 3.43751C0.772795 3.37444 0.793431 3.31188 0.81567 3.2499C0.837837 3.18785 0.861535 3.12638 0.886764 3.06549C0.911993 3.00468 0.938681 2.94445 0.966826 2.88488C0.995045 2.82531 1.02465 2.76646 1.05571 2.70842C1.08677 2.65031 1.11922 2.59299 1.15306 2.53648C1.18696 2.47997 1.22218 2.42434 1.25878 2.3695C1.29539 2.31474 1.33331 2.26093 1.37253 2.20799C1.41184 2.15506 1.45231 2.10314 1.49416 2.05224C1.53594 2.00128 1.57896 1.9514 1.62315 1.90262C1.66741 1.85377 1.71284 1.80608 1.75943 1.75948C1.80602 1.71289 1.85371 1.66746 1.90257 1.62328C1.95135 1.57902 2.00122 1.53599 2.05212 1.49421C2.10309 1.45236 2.155 1.41189 2.20794 1.37259C2.26088 1.33336 2.31469 1.29544 2.36945 1.25884C2.42428 1.22223 2.47992 1.18702 2.53643 1.15311C2.59294 1.11928 2.65025 1.08683 2.7083 1.05577C2.76641 1.0247 2.82525 0.995098 2.88483 0.96688C2.9444 0.938734 3.00463 0.912046 3.06544 0.886817C3.12633 0.861588 3.1878 0.83789 3.24985 0.815723C3.31183 0.793484 3.37439 0.772849 3.43746 0.753744C3.50046 0.73464 3.56397 0.717067 3.62785 0.701026C3.6918 0.685057 3.75603 0.670619 3.82064 0.657713C3.88524 0.64488 3.95014 0.633651 4.01533 0.623953C4.08051 0.614328 4.14585 0.606234 4.21147 0.599744C4.27702 0.593328 4.34272 0.588442 4.40849 0.585234C4.47434 0.582026 4.54018 0.580421 4.60602 0.580421Z" fill="white"/>
</g>
<path d="M20.8137 21.5476C23.1725 19.346 24.2209 15.6768 23.5919 12.1648H14.209V16.0437H19.5557C19.346 17.3017 18.6121 18.3501 17.5638 19.0315L20.8137 21.5476Z" fill="#4285F4"/>
<path d="M5.29796 18.4549C5.38385 18.624 5.47442 18.7906 5.56965 18.9545C5.66495 19.1186 5.76477 19.2798 5.86911 19.4381C5.97353 19.5964 6.08225 19.7517 6.19542 19.9039C6.30858 20.0562 6.42591 20.205 6.54753 20.3506C6.66908 20.4961 6.79465 20.6382 6.92429 20.7767C7.05386 20.9151 7.1873 21.0498 7.32453 21.1808C7.46176 21.3116 7.60256 21.4386 7.74694 21.5616C7.89131 21.6845 8.03904 21.8033 8.1902 21.9179C8.34128 22.0326 8.4955 22.1428 8.65285 22.2487C8.81021 22.3546 8.97041 22.4559 9.13352 22.5528C9.29656 22.6496 9.46223 22.7418 9.63052 22.8293C9.79881 22.9167 9.96944 22.9994 10.1424 23.0772C10.3154 23.155 10.4904 23.2279 10.6675 23.2958C10.8445 23.3637 11.0234 23.4266 11.204 23.4844C11.3846 23.5422 11.5667 23.595 11.7504 23.6424C11.934 23.69 12.1187 23.7323 12.3047 23.7694C12.4907 23.8064 12.6776 23.8382 12.8655 23.8648C13.0532 23.8912 13.2416 23.9124 13.4306 23.9283C13.6196 23.9441 13.8089 23.9547 13.9985 23.9598C14.1881 23.9649 14.3777 23.9647 14.5673 23.9592C14.7569 23.9536 14.9461 23.9427 15.1351 23.9264C15.324 23.9102 15.5123 23.8886 15.7001 23.8617C15.8879 23.8348 16.0747 23.8026 16.2606 23.7651C16.4466 23.7276 16.6312 23.6849 16.8147 23.637C16.9982 23.5891 17.1802 23.536 17.3608 23.4779C17.5412 23.4197 17.72 23.3564 17.8969 23.2881C18.0738 23.2197 18.2487 23.1465 18.4215 23.0683C18.5943 22.9901 18.7647 22.9071 18.9328 22.8193C19.1009 22.7315 19.2664 22.6389 19.4293 22.5418C19.5921 22.4446 19.7521 22.3428 19.9092 22.2367C20.0664 22.1304 20.2204 22.0198 20.3712 21.9049C20.5221 21.79 20.6696 21.6708 20.8137 21.5476L17.5638 19.0315C14.7857 20.8661 10.1729 20.1847 8.60028 15.8864L5.29796 18.4549Z" fill="#34A853"/>
<path d="M8.60029 15.8864C8.18094 14.576 8.18094 13.3704 8.60029 12.0599L5.29796 9.49142C4.09236 11.9027 3.72544 15.3098 5.29796 18.4549L8.60029 15.8864Z" fill="#FBBC02"/>
<path d="M8.60028 12.0599C9.75353 8.44309 14.6808 6.34638 17.9831 9.43899L20.8661 6.60844C16.7775 2.67714 8.80999 2.83434 5.29796 9.49142L8.60028 12.0599Z" fill="#EA4335"/>
</g>
<defs>
<clipPath id="clip0_31_101">
<rect width="28" height="28" fill="white"/>
</clipPath>
</defs>
</svg>
