<svg width="18" height="19" viewBox="0 0 18 19" fill="none" xmlns="http://www.w3.org/2000/svg">
<g clip-path="url(#clip0_193_143)">
<path fill-rule="evenodd" clip-rule="evenodd" d="M18.0001 4H6.10352e-05V7C1.10463 7 2.00006 7.89543 2.00006 9V13C2.00006 15.8284 2.00006 17.2426 2.87874 18.1213C3.75742 19 5.17163 19 8.00006 19H10.0001C12.8285 19 14.2427 19 15.1214 18.1213C16.0001 17.2426 16.0001 15.8284 16.0001 13V9C16.0001 7.89543 16.8955 7 18.0001 7V4ZM7.50006 9C7.50006 8.44772 7.05235 8 6.50006 8C5.94778 8 5.50006 8.44772 5.50006 9V14C5.50006 14.5523 5.94778 15 6.50006 15C7.05235 15 7.50006 14.5523 7.50006 14V9ZM12.5001 9C12.5001 8.44772 12.0523 8 11.5001 8C10.9478 8 10.5001 8.44772 10.5001 9V14C10.5001 14.5523 10.9478 15 11.5001 15C12.0523 15 12.5001 14.5523 12.5001 14V9Z" fill="#222222"/>
<path d="M7.06815 1.37059C7.1821 1.26427 7.43319 1.17033 7.78248 1.10332C8.13177 1.03632 8.55973 1 9 1C9.44027 1 9.86823 1.03632 10.2175 1.10332C10.5668 1.17033 10.8179 1.26427 10.9319 1.37059" stroke="#222222" stroke-width="2" stroke-linecap="round"/>
</g>
<defs>
<clipPath id="clip0_193_143">
<rect width="18" height="19" fill="white"/>
</clipPath>
</defs>
</svg>
