<svg width="52" height="36" viewBox="0 0 52 36" fill="none" xmlns="http://www.w3.org/2000/svg">
<rect x="0.5" y="0.5" width="51" height="35" rx="5.5" fill="white" stroke="#D9D9D9"/>
<path d="M21.8908 35.25L51.2337 26.625V30.25C51.2337 33.0114 48.9951 35.25 46.2337 35.25H21.8908Z" fill="#FD6020"/>
<path fill-rule="evenodd" clip-rule="evenodd" d="M45.6642 14.4163C47.2785 14.4163 48.1664 15.1416 48.1664 16.5116C48.2471 17.5593 47.5207 18.4458 46.5521 18.607L48.7314 21.5888H47.0364L45.1799 18.6876H45.0185V21.5888H43.6463V14.4163H45.6642ZM45.0185 17.7205H45.4221C46.31 17.7205 46.7135 17.3175 46.7135 16.5922C46.7135 15.9475 46.31 15.5445 45.4221 15.5445H45.0185V17.7205ZM38.8841 21.5888H42.7585V20.38H40.2563V18.4458H42.6778V17.2369H40.2563V15.6251H42.7585V14.4163H38.8841V21.5888V21.5888ZM34.8484 19.2517L32.9919 14.4163H31.539L34.5255 21.75H35.2519L38.2384 14.4163H36.7855L34.8484 19.2517V19.2517ZM18.4631 18.0428C18.4631 20.0576 20.0774 21.75 22.0953 21.75C22.741 21.75 23.306 21.5888 23.871 21.347V19.7352C23.4675 20.2188 22.9024 20.5411 22.2567 20.5411C20.9653 20.5411 19.916 19.5741 19.916 18.2846V18.1234C19.8352 16.834 20.8846 15.7057 22.176 15.6251C22.8217 15.6251 23.4675 15.9475 23.871 16.431V14.8192C23.3867 14.4969 22.741 14.4163 22.176 14.4163C20.0774 14.2551 18.4631 15.9475 18.4631 18.0428V18.0428ZM15.9609 17.1563C15.1537 16.834 14.9116 16.6728 14.9116 16.2699C14.9923 15.7863 15.3959 15.3834 15.8802 15.4639C16.2838 15.4639 16.6873 15.7057 17.0102 16.0281L17.7366 15.061C17.1716 14.5775 16.4452 14.2551 15.7188 14.2551C14.5887 14.1745 13.6201 15.061 13.5394 16.1893V16.2699C13.5394 17.2369 13.943 17.8011 15.2345 18.204C15.5573 18.2846 15.8802 18.4458 16.203 18.607C16.4452 18.7682 16.6066 19.0099 16.6066 19.3323C16.6066 19.8964 16.1223 20.38 15.638 20.38H15.5573C14.9116 20.38 14.3466 19.977 14.1044 19.4129L13.2166 20.2994C13.7009 21.1859 14.6695 21.6694 15.638 21.6694C16.9295 21.75 17.9788 20.7829 18.0595 19.4935V19.2517C17.9788 18.2846 17.5752 17.8011 15.9609 17.1563V17.1563ZM11.2794 21.5888H12.6516V14.4163H11.2794V21.5888V21.5888ZM4.90286 14.4163H6.92075H7.32433C9.26151 14.4969 10.7951 16.1087 10.7144 18.0429C10.7144 19.0905 10.2301 20.0576 9.42294 20.7829C8.6965 21.3471 7.80862 21.6694 6.92075 21.5888H4.90286V14.4163ZM6.6786 20.38C7.32432 20.4606 8.05076 20.2188 8.53506 19.8158C9.01935 19.3323 9.2615 18.6876 9.2615 17.9623C9.2615 17.3175 9.01935 16.6728 8.53506 16.1893C8.05076 15.7863 7.32432 15.5445 6.6786 15.6251H6.27502V20.38H6.6786Z" fill="black"/>
<path fill-rule="evenodd" clip-rule="evenodd" d="M27.9875 14.25C25.9696 14.25 24.2746 15.8618 24.2746 17.9572C24.2746 19.9719 25.8889 21.6643 27.9875 21.7449C30.0861 21.8255 31.7004 20.1331 31.7812 18.0377C31.7004 15.9424 30.0861 14.25 27.9875 14.25V14.25Z" fill="#FD6020"/>
</svg>
