<svg width="52" height="36" viewBox="0 0 52 36" fill="none" xmlns="http://www.w3.org/2000/svg">
<rect x="0.5" y="0.5" width="51" height="35" rx="5.5" fill="white" stroke="#D9D9D9"/>
<path fill-rule="evenodd" clip-rule="evenodd" d="M26.3714 25.7354C24.6011 27.2778 22.3047 28.209 19.7953 28.209C14.1962 28.209 9.65714 23.5731 9.65714 17.8545C9.65714 12.1359 14.1962 7.5 19.7953 7.5C22.3047 7.5 24.6011 8.43113 26.3714 9.97354C28.1418 8.43113 30.4382 7.5 32.9475 7.5C38.5467 7.5 43.0857 12.1359 43.0857 17.8545C43.0857 23.5731 38.5467 28.209 32.9475 28.209C30.4382 28.209 28.1418 27.2778 26.3714 25.7354Z" fill="#ED0006"/>
<path fill-rule="evenodd" clip-rule="evenodd" d="M26.3714 25.7354C28.5513 23.8362 29.9335 21.0102 29.9335 17.8545C29.9335 14.6988 28.5513 11.8727 26.3714 9.97354C28.1418 8.43113 30.4382 7.5 32.9475 7.5C38.5467 7.5 43.0857 12.1359 43.0857 17.8545C43.0857 23.5731 38.5467 28.209 32.9475 28.209C30.4382 28.209 28.1418 27.2778 26.3714 25.7354Z" fill="#F9A000"/>
<path fill-rule="evenodd" clip-rule="evenodd" d="M26.3715 9.97357C28.5513 11.8728 29.9335 14.6988 29.9335 17.8545C29.9335 21.0102 28.5513 23.8362 26.3715 25.7354C24.1916 23.8362 22.8094 21.0102 22.8094 17.8545C22.8094 14.6988 24.1916 11.8728 26.3715 9.97357Z" fill="#FF5E00"/>
</svg>
