<svg width="52" height="36" viewBox="0 0 52 36" fill="none" xmlns="http://www.w3.org/2000/svg">
<rect x="0.5" y="0.5" width="51" height="35" rx="5.5" fill="white" stroke="#D9D9D9"/>
<path fill-rule="evenodd" clip-rule="evenodd" d="M14.7086 22.8615H12.3974C12.2392 22.8615 12.1047 22.9775 12.08 23.1351L11.1453 29.1187C11.1267 29.2368 11.2173 29.3432 11.3359 29.3432H12.4393C12.5974 29.3432 12.7319 29.2272 12.7566 29.0693L13.0087 27.4554C13.033 27.2974 13.1679 27.1815 13.3257 27.1815H14.0574C15.5798 27.1815 16.4584 26.4376 16.688 24.9637C16.7914 24.3188 16.6924 23.8121 16.3932 23.4572C16.0648 23.0677 15.4821 22.8615 14.7086 22.8615ZM14.9752 25.0469C14.8489 25.8842 14.2152 25.8842 13.6025 25.8842H13.2537L13.4984 24.3204C13.5129 24.226 13.594 24.1563 13.6887 24.1563H13.8485C14.2659 24.1563 14.6596 24.1563 14.8631 24.3965C14.9843 24.5399 15.0215 24.7527 14.9752 25.0469ZM21.6173 25.02H20.5105C20.4162 25.02 20.3348 25.0897 20.3202 25.1842L20.2713 25.4967L20.1938 25.3835C19.9543 25.0323 19.42 24.915 18.8867 24.915C17.6636 24.915 16.6191 25.8502 16.4156 27.1622C16.3099 27.8165 16.4602 28.4423 16.8278 28.8787C17.1652 29.2799 17.6478 29.4471 18.2219 29.4471C19.2073 29.4471 19.7539 28.8073 19.7539 28.8073L19.7045 29.1179C19.6859 29.2366 19.7764 29.343 19.8944 29.343H20.8914C21.0499 29.343 21.1836 29.227 21.2087 29.0691L21.8069 25.2446C21.8258 25.1269 21.7356 25.02 21.6173 25.02ZM20.0745 27.1949C19.9677 27.8333 19.4658 28.2618 18.8259 28.2618C18.5045 28.2618 18.2476 28.1577 18.0827 27.9605C17.9191 27.7647 17.8569 27.4859 17.909 27.1755C18.0087 26.5425 18.5191 26.1 19.1493 26.1C19.4635 26.1 19.719 26.2054 19.8873 26.4043C20.0559 26.6053 20.1228 26.8857 20.0745 27.1949ZM26.3996 25.0199H27.5119C27.6676 25.0199 27.7585 25.1962 27.67 25.3252L23.9709 30.7161C23.911 30.8034 23.8123 30.8554 23.7069 30.8554H22.596C22.4396 30.8554 22.3483 30.6776 22.4388 30.5483L23.5907 28.9068L22.3657 25.2771C22.3233 25.1509 22.4155 25.0199 22.5485 25.0199H23.6413C23.7833 25.0199 23.9086 25.114 23.9496 25.2512L24.5997 27.4434L26.1337 25.1621C26.1938 25.0731 26.2936 25.0199 26.3996 25.0199Z" fill="#253B80"/>
<path fill-rule="evenodd" clip-rule="evenodd" d="M38.4584 29.1186L39.4069 23.0256C39.4214 22.931 39.5026 22.8614 39.5969 22.8611H40.6648C40.7827 22.8611 40.8732 22.9678 40.8546 23.0859L39.9192 29.0692C39.8948 29.2271 39.7603 29.3432 39.6019 29.3432H38.6482C38.5303 29.3432 38.4398 29.2367 38.4584 29.1186ZM31.1942 22.8614H28.8825C28.7247 22.8614 28.5902 22.9775 28.5655 23.135L27.6308 29.1186C27.6122 29.2367 27.7027 29.3432 27.8208 29.3432H29.0069C29.1171 29.3432 29.2114 29.262 29.2286 29.1515L29.4939 27.4554C29.5183 27.2973 29.6531 27.1814 29.8109 27.1814H30.5422C32.065 27.1814 32.9434 26.4376 33.1731 24.9636C33.2768 24.3188 33.1772 23.8121 32.8782 23.4571C32.5499 23.0676 31.9677 22.8614 31.1942 22.8614ZM31.4608 25.0468C31.3348 25.8841 30.7011 25.8841 30.088 25.8841H29.7396L29.9846 24.3204C29.9992 24.2259 30.0796 24.1563 30.1745 24.1563H30.3343C30.7514 24.1563 31.1455 24.1563 31.3488 24.3965C31.4702 24.5398 31.5071 24.7527 31.4608 25.0468ZM38.1023 25.02H36.9963C36.9012 25.02 36.8205 25.0896 36.8063 25.1842L36.7573 25.4967L36.6796 25.3835C36.44 25.0323 35.9061 24.915 35.3728 24.915C34.1497 24.915 33.1054 25.8502 32.902 27.1621C32.7966 27.8165 32.9462 28.4422 33.3139 28.8786C33.6519 29.2798 34.1339 29.447 34.708 29.447C35.6934 29.447 36.2398 28.8073 36.2398 28.8073L36.1906 29.1178C36.1719 29.2366 36.2625 29.343 36.3812 29.343H37.3777C37.5355 29.343 37.67 29.2269 37.6947 29.069L38.2932 25.2445C38.3115 25.1269 38.221 25.02 38.1023 25.02ZM36.5596 27.1948C36.4535 27.8332 35.951 28.2617 35.3109 28.2617C34.9901 28.2617 34.7327 28.1577 34.5677 27.9605C34.4041 27.7647 34.3426 27.4858 34.3941 27.1754C34.4943 26.5424 35.004 26.1 35.6343 26.1C35.9486 26.1 36.204 26.2053 36.3724 26.4042C36.5417 26.6052 36.6086 26.8857 36.5596 27.1948Z" fill="#179BD7"/>
<path d="M23.2618 20.7208L23.546 18.8987L22.9131 18.8839H19.8908L21.9912 5.43814C21.9976 5.39754 22.0188 5.3597 22.0498 5.33282C22.0808 5.30595 22.1205 5.29114 22.1618 5.29114H27.2578C28.9496 5.29114 30.1171 5.64658 30.7267 6.34812C31.0124 6.67724 31.1945 7.02115 31.2825 7.39962C31.3748 7.79676 31.3765 8.27122 31.2863 8.8499L31.2797 8.89214V9.26293L31.5656 9.42639C31.8063 9.55528 31.9974 9.70284 32.1441 9.87178C32.3887 10.1532 32.5468 10.5108 32.6136 10.9348C32.6825 11.3709 32.6597 11.8898 32.5468 12.4772C32.4164 13.153 32.2055 13.7416 31.9209 14.2232C31.659 14.6669 31.3254 15.0349 30.9294 15.3202C30.5512 15.5911 30.1019 15.7969 29.594 15.9286C29.1016 16.0579 28.5405 16.1232 27.925 16.1232H27.5284C27.2448 16.1232 26.9693 16.2264 26.7531 16.4112C26.5364 16.5999 26.3928 16.8576 26.3488 17.1396L26.319 17.3037L25.817 20.5151L25.7941 20.633C25.7882 20.6705 25.7779 20.6891 25.7627 20.7017C25.7491 20.7131 25.7295 20.7208 25.7105 20.7208H23.2618Z" fill="#253B80"/>
<path d="M31.8362 8.93506C31.821 9.03324 31.8036 9.13361 31.7841 9.23673C31.1119 12.7204 28.8128 13.9238 25.8762 13.9238H24.3811C24.0221 13.9238 23.7195 14.1871 23.6635 14.5447L22.8979 19.4463L22.6812 20.8356C22.6447 21.0704 22.8241 21.2821 23.0587 21.2821H25.7106C26.0247 21.2821 26.2913 21.0518 26.3407 20.7391L26.3668 20.603L26.8662 17.4041L26.8983 17.2287C26.9471 16.9149 27.2143 16.6845 27.5284 16.6845H27.925C30.4942 16.6845 32.5055 15.6314 33.0934 12.5838C33.3389 11.3107 33.2118 10.2477 32.562 9.50002C32.3654 9.27458 32.1214 9.08754 31.8362 8.93506Z" fill="#179BD7"/>
<path d="M31.1329 8.65229C31.0303 8.62212 30.9242 8.59469 30.8155 8.57001C30.7064 8.54588 30.5944 8.52449 30.4793 8.50584C30.0761 8.44002 29.6345 8.40875 29.1612 8.40875H25.167C25.0686 8.40875 24.9753 8.43124 24.8916 8.47183C24.7074 8.56123 24.5705 8.73732 24.5374 8.95288L23.6875 14.3865L23.6631 14.545C23.7191 14.1873 24.0218 13.9241 24.3808 13.9241H25.8759C28.8125 13.9241 31.1118 12.7201 31.7838 9.23701C31.8038 9.13389 31.8207 9.03351 31.8358 8.93533C31.6658 8.84427 31.4816 8.76639 31.2833 8.70001C31.2345 8.68355 31.184 8.66765 31.1329 8.65229Z" fill="#222D65"/>
<path d="M24.5374 8.95275C24.5706 8.73718 24.7076 8.56111 24.8916 8.47225C24.9759 8.43165 25.0688 8.40917 25.167 8.40917H29.1614C29.6347 8.40917 30.0763 8.44043 30.4793 8.50626C30.5946 8.5249 30.7066 8.5463 30.8157 8.57042C30.9244 8.59512 31.0303 8.62255 31.1331 8.6527C31.184 8.66807 31.2346 8.68397 31.284 8.69988C31.4823 8.76625 31.6665 8.84469 31.8365 8.93519C32.0365 7.64783 31.8349 6.7713 31.1456 5.9776C30.3855 5.10382 29.0136 4.72974 27.2583 4.72974H22.1621C21.8035 4.72974 21.4978 4.99301 21.4423 5.3512L19.3197 18.9352C19.2778 19.2039 19.4832 19.4464 19.7515 19.4464H22.8978L23.6877 14.3863L24.5374 8.95275Z" fill="#253B80"/>
</svg>
