<svg width="52" height="36" viewBox="0 0 52 36" fill="none" xmlns="http://www.w3.org/2000/svg">
<rect x="0.5" y="0.5" width="51" height="35" rx="5.5" fill="white" stroke="#D9D9D9"/>
<path fill-rule="evenodd" clip-rule="evenodd" d="M27.9395 12.2129L25.298 12.7852V10.623L27.9395 10.0613V12.2129ZM17.2051 11.2908L14.6373 11.8419L14.6267 20.3317C14.6267 21.9004 15.7949 23.0557 17.3524 23.0557C18.2154 23.0557 18.8468 22.8967 19.1941 22.7059V20.5543C18.8573 20.6921 17.1946 21.1797 17.1946 19.611V15.8483H19.1941V13.5907H17.1946L17.2051 11.2908ZM45.3143 18.2649C45.3143 15.5516 44.0093 13.4106 41.5152 13.4106C39.0105 13.4106 37.4951 15.5516 37.4951 18.2437C37.4951 21.4341 39.2841 23.0451 41.8519 23.0451C43.1043 23.0451 44.0514 22.7589 44.767 22.3562V20.2364C44.0514 20.5967 43.2306 20.8193 42.1887 20.8193C41.1679 20.8193 40.2628 20.4589 40.1471 19.2083H45.2932C45.2932 19.1499 45.297 19.0176 45.3013 18.865L45.3014 18.8642L45.3014 18.8639L45.3014 18.8635L45.3014 18.8632C45.3073 18.6557 45.3143 18.4112 45.3143 18.2649ZM40.1154 17.258C40.1154 16.0603 40.8416 15.5622 41.5046 15.5622C42.1465 15.5622 42.8306 16.0603 42.8306 17.258H40.1154ZM10.9856 15.7106C10.4279 15.7106 10.0911 15.8696 10.0911 16.2829C10.0911 16.7343 10.6707 16.9328 11.3897 17.1791C12.5619 17.5806 14.1047 18.1091 14.1112 20.0668C14.1112 21.964 12.6063 23.0557 10.4173 23.0557C9.51228 23.0557 8.52304 22.8756 7.54432 22.4516V19.929C8.42832 20.4166 9.54385 20.7769 10.4173 20.7769C11.0067 20.7769 11.4276 20.618 11.4276 20.1304C11.4276 19.6305 10.7994 19.402 10.0409 19.1261C8.88572 18.706 7.42856 18.176 7.42856 16.4101C7.42856 14.5341 8.84928 13.4106 10.9856 13.4106C11.8591 13.4106 12.7221 13.5484 13.5955 13.8982V16.3889C12.7957 15.9544 11.7854 15.7106 10.9856 15.7106ZM22.4672 14.3751L22.2988 13.5908H20.0256V22.8649H22.6566V16.5797C23.2775 15.7636 24.3299 15.912 24.6561 16.0285V13.5908C24.3194 13.4636 23.0881 13.2304 22.4672 14.3751ZM25.2978 13.5908H27.9393V22.8649H25.2978V13.5908ZM31.3701 14.2373C31.7384 13.8981 32.4014 13.4106 33.4328 13.4106C35.2744 13.4106 37.0109 15.0852 37.0214 18.159C37.0214 21.5189 35.306 23.0451 33.4222 23.0451C32.4961 23.0451 31.9384 22.653 31.5595 22.3774L31.549 25.3769L28.918 25.9387V13.5802H31.2333L31.3701 14.2373ZM31.5595 20.2152C31.8121 20.4907 32.1804 20.7133 32.8013 20.7133C33.7695 20.7133 34.422 19.6534 34.422 18.2331C34.422 16.8447 33.759 15.7636 32.8013 15.7636C32.2014 15.7636 31.8226 15.9755 31.549 16.2829L31.5595 20.2152Z" fill="#6461FC"/>
</svg>
