<svg width="52" height="36" viewBox="0 0 52 36" fill="none" xmlns="http://www.w3.org/2000/svg">
<rect x="0.5" y="0.5" width="51" height="35" rx="5.5" fill="white" stroke="#D9D9D9"/>
<path fill-rule="evenodd" clip-rule="evenodd" d="M15.7861 24.3874H12.6359L10.2736 15.2886C10.1615 14.87 9.92345 14.5 9.57326 14.3256C8.69932 13.8873 7.73629 13.5386 6.68571 13.3626V13.0123H11.7604C12.4608 13.0123 12.9861 13.5386 13.0736 14.1497L14.2993 20.713L17.448 13.0123H20.5106L15.7861 24.3874ZM22.2616 24.3874H19.2865L21.7363 13.0123H24.7114L22.2616 24.3874ZM28.5604 16.1636C28.648 15.5509 29.1733 15.2006 29.7861 15.2006C30.7491 15.1127 31.7982 15.2886 32.6736 15.7253L33.1989 13.2762C32.3235 12.9259 31.3604 12.75 30.4865 12.75C27.5989 12.75 25.4978 14.3256 25.4978 16.5124C25.4978 18.1759 26.9861 19.0494 28.0367 19.5756C29.1733 20.1003 29.611 20.4506 29.5235 20.9753C29.5235 21.7624 28.648 22.1127 27.774 22.1127C26.7235 22.1127 25.6729 21.8503 24.7114 21.4121L24.1861 23.8627C25.2367 24.2994 26.3733 24.4753 27.4238 24.4753C30.6616 24.5618 32.6736 22.9877 32.6736 20.625C32.6736 17.6497 28.5604 17.4753 28.5604 16.1636V16.1636ZM43.0857 24.3874L40.7235 13.0123H38.1861C37.6608 13.0123 37.1355 13.3626 36.9604 13.8873L32.5861 24.3874H35.6487L36.26 22.7253H40.0231L40.3733 24.3874H43.0857ZM38.6238 16.0756L39.4978 20.3627H37.048L38.6238 16.0756Z" fill="#172B85"/>
</svg>
