<svg width="36" height="36" viewBox="0 0 36 36" fill="none" xmlns="http://www.w3.org/2000/svg">
<path d="M30.4755 6.23342C28.181 5.1806 25.7205 4.40493 23.1478 3.96066C23.101 3.95209 23.0542 3.97352 23.0301 4.01637C22.7136 4.5792 22.3631 5.31344 22.1176 5.89056C19.3506 5.47631 16.5978 5.47631 13.8875 5.89056C13.642 5.30062 13.2787 4.5792 12.9609 4.01637C12.9367 3.97495 12.8899 3.95352 12.8431 3.96066C10.2719 4.40351 7.81134 5.17918 5.5154 6.23342C5.49553 6.24199 5.47849 6.25629 5.46718 6.27485C0.800088 13.2474 -0.478425 20.0485 0.14877 26.7654C0.151608 26.7982 0.170055 26.8297 0.195597 26.8497C3.27481 29.111 6.25756 30.4838 9.18492 31.3937C9.23177 31.408 9.28141 31.3909 9.31122 31.3523C10.0037 30.4067 10.621 29.4096 11.1502 28.361C11.1814 28.2996 11.1516 28.2267 11.0878 28.2024C10.1087 27.831 9.1764 27.3782 8.27959 26.864C8.20866 26.8225 8.20298 26.7211 8.26824 26.6725C8.45696 26.5311 8.64573 26.3839 8.82593 26.2354C8.85853 26.2083 8.90397 26.2025 8.9423 26.2197C14.8339 28.9096 21.2123 28.9096 27.0344 26.2197C27.0728 26.2011 27.1182 26.2068 27.1522 26.234C27.3325 26.3825 27.5212 26.5311 27.7113 26.6725C27.7766 26.7211 27.7723 26.8225 27.7014 26.864C26.8046 27.3882 25.8723 27.831 24.8918 28.201C24.8279 28.2253 24.7995 28.2996 24.8308 28.361C25.3714 29.4081 25.9887 30.4052 26.6683 31.3509C26.6967 31.3909 26.7478 31.408 26.7946 31.3937C29.7362 30.4838 32.7189 29.111 35.7981 26.8497C35.8251 26.8297 35.8422 26.7997 35.845 26.7668C36.5956 19.0014 34.5877 12.256 30.5223 6.27627C30.5124 6.25629 30.4954 6.24199 30.4755 6.23342ZM12.03 22.6755C10.2562 22.6755 8.7947 21.0471 8.7947 19.0471C8.7947 17.0472 10.2279 15.4187 12.03 15.4187C13.8463 15.4187 15.2937 17.0615 15.2653 19.0471C15.2653 21.0471 13.8321 22.6755 12.03 22.6755ZM23.9921 22.6755C22.2184 22.6755 20.7568 21.0471 20.7568 19.0471C20.7568 17.0472 22.19 15.4187 23.9921 15.4187C25.8084 15.4187 27.2558 17.0615 27.2275 19.0471C27.2275 21.0471 25.8084 22.6755 23.9921 22.6755Z" fill="white"/>
</svg>
