<svg width="36" height="36" viewBox="0 0 36 36" fill="none" xmlns="http://www.w3.org/2000/svg">
<path d="M21.6619 8.4881C21.9741 9.81138 23.1623 10.7972 24.5812 10.7972C26.2378 10.7972 27.5808 9.45419 27.5808 7.79763C27.5808 6.14106 26.2378 4.7981 24.5812 4.7981C23.1328 4.7981 21.9248 5.82466 21.6436 7.19013C19.2178 7.45028 17.3236 9.50763 17.3236 12.0009C17.3236 12.0065 17.3236 12.0108 17.3236 12.0164C14.6855 12.1275 12.2766 12.8784 10.3641 14.0639C9.6539 13.514 8.76233 13.1864 7.79483 13.1864C5.47312 13.1864 3.59155 15.0679 3.59155 17.3897C3.59155 19.0743 4.58155 20.5256 6.01171 21.1964C6.15093 26.0761 11.468 30.0009 18.0084 30.0009C24.5489 30.0009 29.873 26.0718 30.0051 21.1879C31.4241 20.5129 32.4056 19.0659 32.4056 17.3911C32.4056 15.0693 30.5241 13.1878 28.2023 13.1878C27.2391 13.1878 26.3517 13.5126 25.643 14.0583C23.7136 12.8643 21.278 12.1134 18.6131 12.0136C18.6131 12.0093 18.6131 12.0065 18.6131 12.0023C18.6131 10.2164 19.9406 8.73419 21.6619 8.49091V8.4881ZM10.1953 20.0573C10.2656 18.5329 11.2781 17.3629 12.4551 17.3629C13.6322 17.3629 14.5322 18.599 14.4619 20.1234C14.3916 21.6478 13.5126 22.2018 12.3342 22.2018C11.1558 22.2018 10.125 21.5817 10.1953 20.0573ZM23.5631 17.3629C24.7416 17.3629 25.7541 18.5329 25.823 20.0573C25.8933 21.5817 24.8611 22.2018 23.6841 22.2018C22.507 22.2018 21.6267 21.6492 21.5564 20.1234C21.4861 18.599 22.3847 17.3629 23.5631 17.3629ZM22.1625 23.5842C22.3833 23.6067 22.5239 23.8359 22.4381 24.0412C21.7139 25.7723 20.0039 26.9887 18.0084 26.9887C16.013 26.9887 14.3044 25.7723 13.5787 24.0412C13.493 23.8359 13.6336 23.6067 13.8544 23.5842C15.1481 23.4534 16.5473 23.3817 18.0084 23.3817C19.4695 23.3817 20.8673 23.4534 22.1625 23.5842Z" fill="white"/>
</svg>
